HIERARCHY
ROOT Hips
{
	OFFSET 0.000000 83.214638 0.000000
	CHANNELS 6 Xposition Yposition Zposition Xrotation Yrotation Zrotation
	JOINT Pelvis
	{
		OFFSET 0.000000 0.000000 0.000000
		CHANNELS 3 Xrotation Yrotation Zrotation
		JOINT LeftUpLeg
		{
			OFFSET 8.479700 -4.795502 -0.379100
			CHANNELS 3 Xrotation Yrotation Zrotation
			JOINT LeftLeg
			{
				OFFSET 0.024144 -32.555107 0.112900
				CHANNELS 3 Xrotation Yrotation Zrotation
				JOINT LeftFoot
				{
					OFFSET -0.024144 -32.638630 -3.012600
					CHANNELS 3 Xrotation Yrotation Zrotation
					JOINT LeftToeBase
					{
						OFFSET 0.970200 -13.225400 11.864200
						CHANNELS 3 Xrotation Yrotation Zrotation
						End Site
						{
							OFFSET 0.000000 12.319262 0.000000
						}
					}
					JOINT LFootTongue
					{
						OFFSET 1.142400 -1.059800 6.665200
						CHANNELS 3 Xrotation Yrotation Zrotation
						End Site
						{
							OFFSET 0.000000 12.319262 0.000000
						}
					}
				}
				JOINT LeftPantLeg
				{
					OFFSET 0.918482 -16.533964 -2.284700
					CHANNELS 3 Xrotation Yrotation Zrotation
					End Site
					{
						OFFSET 0.350399 24.744368 0.000000
					}
				}
			}
		}
		JOINT RightUpLeg
		{
			OFFSET -8.479700 -4.795502 -0.379100
			CHANNELS 3 Xrotation Yrotation Zrotation
			JOINT RightLeg
			{
				OFFSET -0.023144 -32.555092 0.112900
				CHANNELS 3 Xrotation Yrotation Zrotation
				JOINT RightFoot
				{
					OFFSET 0.023144 -32.638641 -3.012700
					CHANNELS 3 Xrotation Yrotation Zrotation
					JOINT RightToeBase
					{
						OFFSET -0.970200 -13.225400 11.864200
						CHANNELS 3 Xrotation Yrotation Zrotation
						End Site
						{
							OFFSET 0.000000 12.319244 0.000000
						}
					}
					JOINT RFootTongue
					{
						OFFSET -1.142200 -1.059800 6.665200
						CHANNELS 3 Xrotation Yrotation Zrotation
						End Site
						{
							OFFSET 0.000000 12.319243 0.000000
						}
					}
				}
				JOINT RightPantLeg
				{
					OFFSET -0.919482 -16.533978 -2.284800
					CHANNELS 3 Xrotation Yrotation Zrotation
					End Site
					{
						OFFSET -0.350400 24.744419 0.000000
					}
				}
			}
		}
	}
	JOINT Spine
	{
		OFFSET 0.000000 7.722000 1.166200
		CHANNELS 3 Xrotation Yrotation Zrotation
		JOINT Spine1
		{
			OFFSET 0.000000 12.024101 0.248800
			CHANNELS 3 Xrotation Yrotation Zrotation
			JOINT Spine2
			{
				OFFSET 0.000000 11.502998 -0.491200
				CHANNELS 3 Xrotation Yrotation Zrotation
				JOINT Neck
				{
					OFFSET 0.000000 18.430702 -3.123100
					CHANNELS 3 Xrotation Yrotation Zrotation
					JOINT Head
					{
						OFFSET 0.000000 9.051102 1.034000
						CHANNELS 3 Xrotation Yrotation Zrotation
						JOINT HairB
						{
							OFFSET 0.208400 24.786102 24.822300
							CHANNELS 3 Xrotation Yrotation Zrotation
							End Site
							{
								OFFSET 0.000000 32.263779 0.000000
							}
						}
						JOINT HairA
						{
							OFFSET -7.081100 24.428299 23.196600
							CHANNELS 3 Xrotation Yrotation Zrotation
							End Site
							{
								OFFSET 0.000000 32.263779 0.000000
							}
						}
						JOINT Hat
						{
							OFFSET 16.728800 15.048294 -15.439601
							CHANNELS 3 Xrotation Yrotation Zrotation
							End Site
							{
								OFFSET 0.000000 32.263779 0.000000
							}
						}
					}
				}
				JOINT LeftShoulder
				{
					OFFSET 6.197800 13.665199 -4.064700
					CHANNELS 3 Xrotation Yrotation Zrotation
					JOINT LeftArm
					{
						OFFSET 7.778100 -0.187103 -1.709300
						CHANNELS 3 Xrotation Yrotation Zrotation
						JOINT LeftForeArm
						{
							OFFSET 22.049376 0.000000 0.000000
							CHANNELS 3 Xrotation Yrotation Zrotation
							JOINT LeftHand
							{
								OFFSET 23.009392 0.000000 0.000000
								CHANNELS 3 Xrotation Yrotation Zrotation
								JOINT LeftHandThumb1
								{
									OFFSET 3.507191 -2.063065 3.133727
									CHANNELS 3 Xrotation Yrotation Zrotation
									JOINT LeftHandThumb2
									{
										OFFSET 3.101337 -1.790558 1.790558
										CHANNELS 3 Xrotation Yrotation Zrotation
										JOINT LeftHandThumb3
										{
											OFFSET 3.058640 -1.765907 1.765906
											CHANNELS 3 Xrotation Yrotation Zrotation
											End Site
											{
												OFFSET -0.415260 3.926476 -0.049563
											}
										}
									}
								}
								JOINT LeftHandIndex1
								{
									OFFSET 11.334419 -0.901459 3.706815
									CHANNELS 3 Xrotation Yrotation Zrotation
									JOINT LeftHandIndex2
									{
										OFFSET 3.283112 0.000000 0.000000
										CHANNELS 3 Xrotation Yrotation Zrotation
										JOINT LeftHandIndex3
										{
											OFFSET 3.323853 0.000000 0.000000
											CHANNELS 3 Xrotation Yrotation Zrotation
											End Site
											{
												OFFSET -1.135597 3.097809 0.402452
											}
										}
									}
								}
								JOINT LeftHandMiddle1
								{
									OFFSET 11.335861 0.000000 0.000000
									CHANNELS 3 Xrotation Yrotation Zrotation
									JOINT LeftHandMiddle2
									{
										OFFSET 3.410492 0.000000 0.000000
										CHANNELS 3 Xrotation Yrotation Zrotation
										JOINT LeftHandMiddle3
										{
											OFFSET 3.312172 0.000000 0.000000
											CHANNELS 3 Xrotation Yrotation Zrotation
											End Site
											{
												OFFSET -1.150200 3.080154 0.400270
											}
										}
									}
								}
								JOINT LeftHandRing1
								{
									OFFSET 11.514786 -0.013176 -3.003090
									CHANNELS 3 Xrotation Yrotation Zrotation
									JOINT LeftHandRing2
									{
										OFFSET 3.053307 0.000000 0.000000
										CHANNELS 3 Xrotation Yrotation Zrotation
										JOINT LeftHandRing3
										{
											OFFSET 3.295807 0.000000 0.000000
											CHANNELS 3 Xrotation Yrotation Zrotation
											End Site
											{
												OFFSET -1.281006 3.013344 0.375733
											}
										}
									}
								}
								JOINT LeftHandPinky1
								{
									OFFSET 10.518692 -0.960396 -5.730441
									CHANNELS 3 Xrotation Yrotation Zrotation
									JOINT LeftHandPinky2
									{
										OFFSET 2.861649 0.000000 0.000000
										CHANNELS 3 Xrotation Yrotation Zrotation
										JOINT LeftHandPinky3
										{
											OFFSET 2.863380 0.000000 0.000000
											CHANNELS 3 Xrotation Yrotation Zrotation
											End Site
											{
												OFFSET -0.843597 2.711159 0.369971
											}
										}
									}
								}
							}
							JOINT LSleeve
							{
								OFFSET 6.676277 -0.344902 -1.011730
								CHANNELS 3 Xrotation Yrotation Zrotation
								End Site
								{
									OFFSET 0.000000 14.885353 0.000000
								}
							}
						}
					}
				}
				JOINT RightShoulder
				{
					OFFSET -6.197800 13.665199 -4.064700
					CHANNELS 3 Xrotation Yrotation Zrotation
					JOINT RightArm
					{
						OFFSET -7.778100 -0.187103 -1.709300
						CHANNELS 3 Xrotation Yrotation Zrotation
						JOINT RightForeArm
						{
							OFFSET -22.049376 0.000000 0.000000
							CHANNELS 3 Xrotation Yrotation Zrotation
							JOINT RightHand
							{
								OFFSET -23.009392 0.000000 0.000000
								CHANNELS 3 Xrotation Yrotation Zrotation
								JOINT RightHandThumb1
								{
									OFFSET -3.507191 -2.063065 3.133727
									CHANNELS 3 Xrotation Yrotation Zrotation
									JOINT RightHandThumb2
									{
										OFFSET -3.101337 -1.790558 1.790558
										CHANNELS 3 Xrotation Yrotation Zrotation
										JOINT RightHandThumb3
										{
											OFFSET -3.058640 -1.765907 1.765906
											CHANNELS 3 Xrotation Yrotation Zrotation
											End Site
											{
												OFFSET 0.415260 3.926476 -0.049563
											}
										}
									}
								}
								JOINT RightHandIndex1
								{
									OFFSET -11.334419 -0.901459 3.706815
									CHANNELS 3 Xrotation Yrotation Zrotation
									JOINT RightHandIndex2
									{
										OFFSET -3.283112 0.000000 0.000000
										CHANNELS 3 Xrotation Yrotation Zrotation
										JOINT RightHandIndex3
										{
											OFFSET -3.323853 0.000000 0.000000
											CHANNELS 3 Xrotation Yrotation Zrotation
											End Site
											{
												OFFSET 1.135597 3.097809 0.402452
											}
										}
									}
								}
								JOINT RightHandMiddle1
								{
									OFFSET -11.335861 0.000000 0.000000
									CHANNELS 3 Xrotation Yrotation Zrotation
									JOINT RightHandMiddle2
									{
										OFFSET -3.410492 0.000000 0.000000
										CHANNELS 3 Xrotation Yrotation Zrotation
										JOINT RightHandMiddle3
										{
											OFFSET -3.312172 0.000000 0.000000
											CHANNELS 3 Xrotation Yrotation Zrotation
											End Site
											{
												OFFSET 1.150200 3.080154 0.400270
											}
										}
									}
								}
								JOINT RightHandRing1
								{
									OFFSET -11.514786 -0.013176 -3.003090
									CHANNELS 3 Xrotation Yrotation Zrotation
									JOINT RightHandRing2
									{
										OFFSET -3.053307 0.000000 0.000000
										CHANNELS 3 Xrotation Yrotation Zrotation
										JOINT RightHandRing3
										{
											OFFSET -3.295807 0.000000 0.000000
											CHANNELS 3 Xrotation Yrotation Zrotation
											End Site
											{
												OFFSET 1.281006 3.013344 0.375733
											}
										}
									}
								}
								JOINT RightHandPinky1
								{
									OFFSET -10.518692 -0.960396 -5.730441
									CHANNELS 3 Xrotation Yrotation Zrotation
									JOINT RightHandPinky2
									{
										OFFSET -2.861649 0.000000 0.000000
										CHANNELS 3 Xrotation Yrotation Zrotation
										JOINT RightHandPinky3
										{
											OFFSET -2.863380 0.000000 0.000000
											CHANNELS 3 Xrotation Yrotation Zrotation
											End Site
											{
												OFFSET 0.843597 2.711159 0.369971
											}
										}
									}
								}
							}
							JOINT RSleeve
							{
								OFFSET -6.676277 -0.344902 -1.011730
								CHANNELS 3 Xrotation Yrotation Zrotation
								End Site
								{
									OFFSET 0.000000 14.885353 0.000000
								}
							}
						}
					}
				}
				JOINT Backpack
				{
					OFFSET 0.000000 -2.471497 36.677502
					CHANNELS 3 Xrotation Yrotation Zrotation
					End Site
					{
						OFFSET 0.000000 20.427315 0.000000
					}
				}
				JOINT Hood
				{
					OFFSET 0.000000 18.754097 -10.431000
					CHANNELS 3 Xrotation Yrotation Zrotation
					JOINT Hood1
					{
						OFFSET 0.000000 -5.011002 -7.685901
						CHANNELS 3 Xrotation Yrotation Zrotation
						End Site
						{
							OFFSET 0.000000 9.175140 0.000000
						}
					}
				}
				JOINT LHoodieString
				{
					OFFSET 5.250500 16.397697 3.089900
					CHANNELS 3 Xrotation Yrotation Zrotation
					JOINT LHoodieString1
					{
						OFFSET 0.257700 -6.364304 3.694600
						CHANNELS 3 Xrotation Yrotation Zrotation
						JOINT LHoodieString2
						{
							OFFSET 0.000000 -9.643799 2.679100
							CHANNELS 3 Xrotation Yrotation Zrotation
							End Site
							{
								OFFSET 0.000000 10.009018 0.000000
							}
						}
					}
				}
				JOINT RHoodieString
				{
					OFFSET -5.250500 16.397697 3.089900
					CHANNELS 3 Xrotation Yrotation Zrotation
					JOINT RHoodieString1
					{
						OFFSET -0.257700 -6.364304 3.694600
						CHANNELS 3 Xrotation Yrotation Zrotation
						JOINT RHoodieString2
						{
							OFFSET 0.000000 -9.643799 2.679100
							CHANNELS 3 Xrotation Yrotation Zrotation
							End Site
							{
								OFFSET 0.000000 10.009018 0.000000
							}
						}
					}
				}
			}
			JOINT LBackpack_Strap
			{
				OFFSET 15.223200 -7.719803 -6.610900
				CHANNELS 3 Xrotation Yrotation Zrotation
				End Site
				{
					OFFSET 0.000000 16.040596 0.000000
				}
			}
			JOINT RBackpack_Strap
			{
				OFFSET -15.223000 -7.719803 -6.610900
				CHANNELS 3 Xrotation Yrotation Zrotation
				End Site
				{
					OFFSET 0.000000 16.040596 0.000000
				}
			}
		}
	}
	JOINT BoyFacialAnim_Joint
	{
		OFFSET 1.000000 -82.208099 -1.550900
		CHANNELS 3 Xrotation Yrotation Zrotation
		End Site
		{
			OFFSET 0.000000 30.012791 0.000000
		}
	}
}
MOTION
Frames: 4
Frame Time: 0.016667
0.676303 79.418350 0.146883 -2.790707 -1.005115 2.870285 -0.000000 0.000000 0.000000 -7.016958 1.386458 -17.492519 21.000118 10.041543 4.586806 -15.245515 15.719482 8.303884 -0.000000 -0.000002 -0.000000 -0.000000 -0.000002 -0.000000 0.000000 -0.000000 -0.000000 -26.363099 -4.117130 0.642078 27.093634 -9.880314 -3.331365 0.174957 -16.301672 -2.480532 0.000000 -0.000000 -0.000000 0.000000 -0.000000 -0.000000 -0.000000 0.000000 -0.000000 -3.687708 2.070833 2.394680 1.825086 0.204639 -3.563413 1.839735 0.222339 -3.555415 0.005326 -3.044289 -0.019016 5.669664 4.099741 0.112405 0.000000 0.000000 0.000000 0.000000 0.000000 0.000000 0.000000 0.000000 0.000000 3.264881 -13.066456 -8.920290 12.299514 32.230799 -77.872257 0.000007 -37.449497 0.000025 11.318185 5.111735 -3.307938 -6.694194 7.651326 20.042546 11.568901 23.611293 -7.394405 -0.000000 0.000000 -0.000002 -0.982643 -2.594468 -15.812738 0.762402 3.154220 -27.170305 -0.000003 0.000000 -0.000002 -0.144669 0.710058 -18.764162 0.628384 2.878569 -24.623932 -0.000001 0.000000 -0.000005 0.773680 3.364641 -19.548476 1.234016 3.938343 -34.783619 -0.000001 0.000001 -0.000002 3.973849 12.688231 -18.446017 1.306904 -0.043991 -36.042724 0.000002 0.000001 0.000002 -0.000000 0.000000 0.000000 1.454488 14.110498 8.503200 54.678335 18.111657 70.211817 -0.000146 75.258788 0.000117 51.346381 35.160571 -70.815927 1.788476 4.679422 9.698163 4.637196 -8.634087 -0.225410 -0.000003 -0.000001 -0.000003 8.183366 12.621775 -38.427915 0.272896 -1.932525 16.073489 -0.000003 0.000002 0.000002 3.398855 7.945809 -28.641164 0.564759 -2.749689 23.209746 -0.000003 -0.000000 0.000003 1.368549 4.899679 -20.505903 0.144625 -1.413623 11.682870 -0.000000 -0.000000 0.000000 -3.372260 -9.628511 -18.358802 0.125285 -1.316622 10.870640 -0.000001 -0.000001 0.000000 0.000001 0.000001 -0.000000 -0.000000 -0.000000 -0.000000 -0.000000 -0.000000 -0.000000 -0.000000 -0.000000 -0.000000 -0.000000 -0.000000 -0.000000 -0.000000 -0.000000 -0.000000 -0.000000 -0.000000 -0.000000 -0.000000 -0.000000 -0.000000 -0.000000 -0.000000 -0.000000 -0.000000 -0.000000 -0.000000 -0.000000 0.000000 0.000000 -0.000000 0.000000 0.000000 -0.000000 0.000000 0.000000 
0.683228 79.413612 0.173339 -2.789375 -1.021213 2.896000 0.000000 -0.000000 0.000000 -6.986302 1.367292 -17.527852 20.979430 10.041743 4.580653 -15.264028 15.734833 8.314934 -0.000000 -0.000002 -0.000000 -0.000000 -0.000002 -0.000000 0.000000 0.000000 0.000001 -26.389349 -4.107244 0.621457 27.173954 -9.874317 -3.350786 0.125572 -16.307442 -2.455171 0.000000 -0.000002 0.000000 0.000000 -0.000002 0.000000 0.000000 0.000001 0.000000 -3.754112 2.090220 2.414374 1.845094 0.206904 -3.577331 1.859860 0.224641 -3.569078 0.009549 -3.046896 -0.006451 5.643798 4.101382 0.127781 0.000000 0.000000 0.000000 0.000000 0.000000 0.000000 0.000000 0.000000 0.000000 3.286008 -13.114651 -8.932844 12.556909 32.167790 -77.897037 0.000011 -37.526784 0.000028 11.076594 5.115573 -3.368716 -6.692588 7.656129 20.048859 11.568525 23.610386 -7.394139 0.000002 0.000000 -0.000003 -0.984546 -2.600913 -15.814572 0.762406 3.154231 -27.170407 -0.000001 -0.000001 -0.000000 -0.143596 0.713503 -18.767050 0.628413 2.878625 -24.624475 -0.000001 -0.000001 -0.000004 0.775402 3.369366 -19.550030 1.233922 3.938212 -34.782233 -0.000000 0.000001 -0.000002 3.968892 12.674934 -18.444723 1.307789 -0.042767 -36.055257 0.000000 -0.000000 0.000003 -0.000000 0.000001 0.000001 1.454902 14.140044 8.517077 54.746627 17.804531 70.167968 0.000024 75.583591 -0.000034 51.021305 35.499492 -69.948001 1.808277 4.619854 9.771591 4.631486 -8.617673 -0.226287 -0.000007 -0.000001 -0.000002 8.218638 12.665221 -38.428519 0.260935 -1.890575 15.715304 -0.000000 0.000005 0.000004 3.525002 8.091271 -29.060501 0.542006 -2.695992 22.730415 -0.000000 0.000000 0.000002 1.402232 4.961669 -20.710211 0.138315 -1.382728 11.423794 -0.000003 0.000003 0.000001 -3.444540 -9.677839 -18.618952 0.124968 -1.314972 10.856920 -0.000000 -0.000001 0.000000 -0.000000 -0.000004 -0.000001 -0.000000 -0.000000 -0.000000 -0.000000 -0.000000 -0.000000 -0.000000 -0.000000 -0.000000 -0.000000 -0.000000 -0.000000 -0.000000 -0.000000 0.000000 -0.000000 0.000000 0.000000 -0.000000 -0.000000 -0.000000 -0.000000 -0.000000 0.000000 -0.000000 0.000000 0.000000 -0.000001 0.000000 0.000000 -0.000001 0.000000 0.000000 0.000000 -0.000000 0.000000 
0.690397 79.408821 0.201841 -2.790636 -1.039057 2.918846 0.000000 0.000000 -0.000000 -6.942897 1.348319 -17.561665 20.953265 10.042118 4.569897 -15.283723 15.713432 8.329950 -0.000000 -0.000000 -0.000000 -0.000000 -0.000000 -0.000000 0.000001 -0.000001 0.000001 -26.411293 -4.096240 0.604317 27.257022 -9.875125 -3.377983 0.073112 -16.336165 -2.421029 0.000000 -0.000002 0.000000 0.000000 -0.000002 0.000000 0.000000 -0.000000 0.000000 -3.809739 2.106978 2.435961 1.862635 0.208559 -3.596378 1.877540 0.226432 -3.587914 0.016665 -3.049434 0.004050 5.628731 4.096245 0.149510 0.000000 0.000000 -0.000000 0.000000 0.000000 -0.000000 0.000000 0.000000 -0.000000 3.318908 -13.200823 -8.955622 12.731989 32.102914 -77.867503 -0.000003 -37.603596 0.000009 10.795355 5.116858 -3.465648 -6.694214 7.651542 20.054316 11.567924 23.609018 -7.393723 0.000001 0.000001 0.000001 -0.987180 -2.602656 -15.840544 0.762411 3.154239 -27.170508 -0.000002 0.000000 -0.000002 -0.146219 0.707060 -18.782516 0.628361 2.878513 -24.623459 -0.000000 -0.000001 -0.000004 0.775206 3.367808 -19.567978 1.233926 3.938211 -34.782216 -0.000001 -0.000000 -0.000000 3.962207 12.657787 -18.441569 1.308460 -0.041853 -36.064656 -0.000000 0.000001 0.000003 -0.000002 0.000002 -0.000000 1.454902 14.165863 8.533177 54.818729 17.557865 70.062373 -0.000049 75.912177 0.000047 50.633780 35.802953 -69.087152 1.823112 4.569997 9.855958 4.626456 -8.603851 -0.227166 0.000001 0.000001 -0.000002 8.248172 12.701447 -38.429714 0.251169 -1.855548 15.416440 -0.000002 -0.000001 0.000003 3.638052 8.218628 -29.430653 0.523448 -2.651348 22.332763 -0.000001 0.000000 0.000002 1.434002 5.019217 -20.901687 0.132902 -1.355689 11.197519 -0.000001 0.000002 -0.000001 -3.501102 -9.709315 -18.829742 0.124337 -1.311679 10.829388 -0.000006 -0.000001 0.000000 -0.000000 -0.000004 -0.000001 0.000000 0.000000 0.000000 0.000000 0.000000 0.000000 0.000000 0.000000 0.000000 0.000000 0.000000 0.000000 0.000000 0.000000 0.000000 -0.000000 0.000000 0.000000 0.000000 0.000000 0.000000 0.000000 0.000000 0.000000 -0.000000 0.000000 0.000000 -0.000000 -0.000000 -0.000000 -0.000000 -0.000000 -0.000000 0.000000 0.000000 -0.000000 
0.697813 79.403969 0.232099 -2.794464 -1.058266 2.938318 -0.000000 -0.000000 0.000000 -6.892406 1.319150 -17.601411 20.919058 10.042326 4.563546 -15.303751 15.700380 8.349136 -0.000000 -0.000000 -0.000000 -0.000000 -0.000000 0.000000 0.000001 0.000000 -0.000000 -26.428860 -4.089644 0.588140 27.342482 -9.871880 -3.408406 0.017611 -16.379082 -2.382468 -0.000000 -0.000002 -0.000000 -0.000000 -0.000002 -0.000000 -0.000000 0.000001 0.000000 -3.853942 2.120403 2.461303 1.877778 0.209558 -3.619556 1.892845 0.227624 -3.610928 0.026440 -3.051732 0.011327 5.624674 4.084378 0.175620 0.000000 0.000000 0.000000 0.000000 0.000000 0.000000 0.000000 0.000000 0.000000 3.362987 -13.321774 -8.988031 12.831982 32.035759 -77.788519 -0.000006 -37.677308 -0.000025 10.468729 5.116991 -3.597170 -6.697707 7.641061 20.056161 11.567878 23.608897 -7.393641 0.000000 0.000001 -0.000002 -0.989590 -2.601590 -15.873045 0.762411 3.154235 -27.170470 -0.000000 0.000001 0.000000 -0.151404 0.693354 -18.801827 0.628222 2.878214 -24.620698 -0.000000 -0.000000 -0.000000 0.773650 3.361983 -19.594008 1.233932 3.938224 -34.782363 -0.000001 0.000000 -0.000000 3.956820 12.642896 -18.440940 1.308768 -0.041425 -36.069000 -0.000000 0.000000 0.000002 0.000000 -0.000001 0.000001 1.454658 14.189410 8.551596 54.897328 17.361578 69.904145 0.000018 76.243114 -0.000016 50.198776 36.073186 -68.237654 1.834418 4.526484 9.947617 4.621986 -8.591966 -0.228042 0.000000 0.000001 -0.000003 8.273455 12.732368 -38.431039 0.242915 -1.825312 15.159142 -0.000001 -0.000001 0.000002 3.741525 8.332697 -29.765828 0.507817 -2.612986 21.992212 0.000002 0.000000 -0.000000 1.464246 5.073221 -21.083635 0.128138 -1.331418 10.994421 0.000000 0.000003 0.000003 -3.546698 -9.729009 -19.006021 0.123502 -1.307307 10.792846 -0.000003 -0.000000 0.000000 0.000003 -0.000002 0.000001 0.000000 -0.000000 0.000000 0.000000 -0.000000 0.000000 0.000000 -0.000000 0.000000 0.000000 -0.000000 0.000000 0.000000 -0.000000 0.000000 0.000000 0.000000 0.000000 0.000000 -0.000000 0.000000 0.000000 -0.000000 0.000000 0.000000 0.000000 0.000000 -0.000001 0.000000 0.000000 -0.000001 0.000000 0.000000 -0.000000 -0.000000 0.000000 
